<?xml version="1.0" encoding="utf-8" standalone="yes"?>
<!DOCTYPE svg PUBLIC "-//W3C//DTD SVG 1.1//EN" "http://www.w3.org/Graphics/SVG/1.1/DTD/svg11.dtd">
<svg xmlns="http://www.w3.org/2000/svg" xmlns:xlink="http://www.w3.org/1999/xlink" xmlns:dc="http://purl.org/dc/elements/1.1/" xmlns:cc="http://web.resource.org/cc/" xmlns:rdf="http://www.w3.org/1999/02/22-rdf-syntax-ns#" xmlns:sodipodi="http://sodipodi.sourceforge.net/DTD/sodipodi-0.dtd" xmlns:inkscape="http://www.inkscape.org/namespaces/inkscape" version="1.1" baseProfile="full" width="100px" height="100px" viewBox="0 0 100 100" preserveAspectRatio="xMidYMid meet" id="svg_document" style="zoom: 8;"><!-- Created with macSVG - https://macsvg.org/ - https://github.com/dsward2/macsvg/ --><line stroke="#21ff06" id="line1" y1="0px" x1="28px" y2="100px" x2="28px" stroke-width="3px" transform=""></line><line stroke="#21ff06" y1="0px" x1="71.5px" y2="100px" x2="71.5px" stroke-width="3px" transform="" id="line2"></line><line stroke="#21ff06" x1="0px" y1="75.5px" x2="100px" y2="75.5px" stroke-width="3px" transform="" id="line3"></line><line stroke="#21ff06" x1="0px" y1="32px" x2="100px" y2="32px" stroke-width="3px" transform="" id="line4"></line><path d="M14.989986,86.865211 L85.009483,86.865211 C93.310188,86.865211 97.461189,82.763649 97.461189,74.560486 L97.461189,34.619087 C97.461189,26.415985 93.310188,22.363289 85.009483,22.363289 L74.218483,22.363289 C71.239983,22.363289 70.312286,21.630783 68.652084,19.824188 L65.673584,16.455086 C63.769287,14.404289 61.718483,13.134789 57.714584,13.134789 L42.236084,13.134789 C38.183384,13.134789 36.132587,14.404289 34.277084,16.455086 L31.249786,19.824188 C29.638386,21.630783 28.661884,22.363289 25.732185,22.363289 L14.989986,22.363289 C6.689187,22.363289 2.538806,26.415985 2.538806,34.619087 L2.538806,74.560486 C2.538806,82.763649 6.689187,86.865211 14.989986,86.865211 M15.087687,79.785133 C11.571985,79.785133 9.570086,77.929665 9.570086,74.218689 L9.570086,35.009785 C9.570086,31.298786 11.571985,29.394485 15.087687,29.394485 L27.587685,29.394485 C31.005585,29.394485 32.909885,28.662086 34.814186,26.562485 L37.695087,23.290985 C39.892284,20.849586 41.015385,20.165985 44.530987,20.165985 L55.370884,20.165985 C58.886482,20.165985 60.009483,20.849586 62.206787,23.290985 L65.136482,26.562485 C66.991989,28.662086 68.945084,29.394485 72.362984,29.394485 L84.911888,29.394485 C88.378685,29.394485 90.380585,31.298786 90.380585,35.009785 L90.380585,74.218689 C90.380585,77.929665 88.378685,79.785133 84.911888,79.785133 M49.999786,74.706985 C61.523186,74.706985 70.751686,65.478485 70.751686,53.857388 C70.751686,42.285088 61.523186,33.056587 49.999786,33.056587 C38.476284,33.056587 29.198986,42.285088 29.198986,53.857388 C29.198986,65.478485 38.476284,74.706985 49.999786,74.706985 M49.999786,68.115189 C42.187286,68.115189 35.741985,61.767586 35.741985,53.857388 C35.741985,45.947285 42.138386,39.648388 49.999786,39.648388 C57.861084,39.648388 64.208687,45.947285 64.208687,53.857388 C64.208687,61.767586 57.861084,68.115189 49.999786,68.115189 M72.167686,39.746086 C72.167686,42.431587 74.364983,44.580086 77.050484,44.580086 C79.687286,44.580086 81.884483,42.431587 81.884483,39.746086 C81.884483,37.109386 79.687286,34.863285 77.050484,34.863285 C74.364983,34.863285 72.167686,37.109386 72.167686,39.746086 " id="path2" class="monochrome-0 SFSymbolsPreview000000"></path></svg>